<svg version="1.1" id="Layer_1" xmlns="http://www.w3.org/2000/svg" xmlns:xlink="http://www.w3.org/1999/xlink" x="0px" y="0px"
	 viewBox="0 0 800 200" style="enable-background:new 0 0 800 200;" xml:space="preserve">
<style type="text/css">
	.st0{fill:#F47836;}
</style>
<g id="XMLID_4_">
	<path id="XMLID_5_" d="M67.9,131.5c-4.6-2-8.2-4.9-10.7-8.7c-2.5-3.8-3.8-8.1-3.8-13.1v-1.5c0-0.6,0.2-1.1,0.6-1.5
		c0.4-0.4,0.9-0.6,1.5-0.6H70c0.6,0,1.1,0.1,1.5,0.4c0.4,0.3,0.6,0.6,0.6,1v1.4c0,2.4,1.2,4.6,3.7,6.5c2.5,1.9,5.6,2.9,9.5,2.9
		c3.3,0,5.8-0.7,7.4-2.2c1.6-1.4,2.4-3.1,2.4-5c0-2.1-0.9-3.8-2.8-4.9c-1.9-1.1-5.2-2.5-10-4l-2.5-0.8c-4.9-1.6-9.1-3.3-12.8-5.2
		c-3.6-1.9-6.8-4.4-9.3-7.8c-2.6-3.3-3.9-7.4-3.9-12.3c0-4.7,1.2-8.8,3.7-12.4c2.5-3.5,5.9-6.3,10.3-8.2c4.4-1.9,9.3-2.9,14.9-2.9
		c5.9,0,11.1,1.1,15.8,3.2c4.7,2.1,8.3,5.1,11,9c2.7,3.9,4,8.3,4,13.3v0.9c0,0.6-0.2,1.1-0.6,1.5c-0.4,0.4-0.9,0.6-1.5,0.6H96.9
		c-0.6,0-1.1-0.1-1.5-0.3c-0.4-0.2-0.6-0.5-0.6-0.9v-1c0-2.7-1.2-5-3.5-7.1c-2.4-2.1-5.5-3.1-9.5-3.1c-3,0-5.3,0.6-7,1.8
		c-1.7,1.2-2.5,2.9-2.5,5.1c0,1.7,0.5,3.1,1.6,4.2c1.1,1.1,2.7,2.1,5,3.1c2.2,1,5.7,2.2,10.3,3.7c5.3,1.8,9.5,3.4,12.4,4.8
		c3,1.4,5.8,3.6,8.4,6.7s3.9,7.1,3.9,12.1c0,4.8-1.3,9-3.8,12.6c-2.5,3.6-6,6.4-10.6,8.4c-4.6,2-9.8,3-15.7,3
		C77.8,134.5,72.5,133.5,67.9,131.5z"/>
	<path id="XMLID_7_" d="M179.7,104.4c0,5.4-0.8,10.2-2.4,14.4c-1.7,4.7-4.6,8.5-8.5,11.5c-3.9,2.9-8.3,4.4-13.2,4.4
		c-5.8,0-10.1-1.7-13-5.2c-0.2-0.3-0.4-0.4-0.6-0.3c-0.2,0.1-0.3,0.3-0.3,0.7v22.7c0,0.6-0.2,1.1-0.6,1.5c-0.4,0.4-0.9,0.6-1.5,0.6
		h-14.8c-0.6,0-1.1-0.2-1.5-0.6c-0.4-0.4-0.6-0.9-0.6-1.5V76.7c0-0.6,0.2-1.1,0.6-1.5c0.4-0.4,0.9-0.6,1.5-0.6h14.8
		c0.6,0,1.1,0.2,1.5,0.6c0.4,0.4,0.6,0.9,0.6,1.5v2.7c0,0.4,0.1,0.6,0.3,0.7c0.2,0.1,0.4,0,0.6-0.3c2.9-4,7.2-6,13-6
		c4.9,0,9.5,1.6,13.7,4.9c4.2,3.3,7,7.5,8.5,12.7C179.1,95,179.7,99.4,179.7,104.4z M159.4,104.1c0-3.9-0.6-7-1.9-9.5
		c-1.6-2.8-3.9-4.2-7-4.2c-2.9,0-5.1,1.4-6.7,4.3c-1.3,2.4-1.9,5.5-1.9,9.3c0,4.2,0.7,7.5,2.1,10c1.6,2.6,3.8,3.9,6.6,3.9
		c3,0,5.2-1.3,6.8-4C158.7,111.5,159.4,108.2,159.4,104.1z"/>
	<path id="XMLID_10_" d="M225,76.3c4.1,1.7,7.3,4.1,9.7,7.1c2.4,3,3.5,6.3,3.5,10v38.2c0,0.6-0.2,1.1-0.6,1.5
		c-0.4,0.4-0.9,0.6-1.5,0.6h-14.8c-0.6,0-1.1-0.2-1.5-0.6c-0.4-0.4-0.6-0.9-0.6-1.5v-2.3c0-0.4-0.1-0.6-0.3-0.7
		c-0.2-0.1-0.4,0-0.6,0.3c-3,3.7-7.9,5.6-14.7,5.6c-6,0-10.8-1.4-14.4-4.3c-3.6-2.9-5.4-7-5.4-12.6c0-5.9,2-10.4,6.1-13.6
		c4.1-3.2,9.9-4.8,17.6-4.8h10.8c0.5,0,0.8-0.3,0.8-0.8v-1.9c0-2.1-0.7-3.7-2-4.8c-1.3-1.2-3.2-1.8-5.6-1.8c-1.7,0-3.2,0.3-4.5,0.9
		c-1.3,0.6-2.1,1.4-2.7,2.3c-0.4,0.5-0.7,0.9-1.1,1.2c-0.3,0.3-0.8,0.4-1.3,0.3l-15.3-1.9c-1.4-0.2-2-0.7-1.8-1.6
		c0.4-3.3,1.7-6.2,4.1-8.8c2.4-2.6,5.5-4.7,9.3-6.2c3.8-1.5,8.2-2.3,12.9-2.3C216.4,73.7,220.9,74.6,225,76.3z M216.5,118.7
		c1.9-1.5,2.8-3.4,2.8-5.9v-2.5c0-0.5-0.3-0.8-0.8-0.8h-6.6c-2.9,0-5.1,0.5-6.7,1.5c-1.6,1-2.3,2.5-2.3,4.4c0,1.7,0.6,3,1.7,4
		c1.1,1,2.7,1.5,4.8,1.5C212.3,120.9,214.7,120.2,216.5,118.7z"/>
	<path id="XMLID_13_" d="M284.9,75.1c1,0.5,1.4,1.4,1.1,2.5l-2.5,14.6c-0.1,1-0.6,1.5-1.5,1.5c-0.4,0-0.7,0-0.9-0.1
		c-0.9-0.2-2.1-0.3-3.4-0.3c-1.2,0-2.1,0.1-2.7,0.2c-2.4,0.3-4.4,1.2-6,2.7c-1.6,1.5-2.5,3.5-2.5,6v29.3c0,0.6-0.2,1.1-0.6,1.5
		c-0.4,0.4-0.9,0.6-1.5,0.6h-14.8c-0.6,0-1.1-0.2-1.5-0.6c-0.4-0.4-0.6-0.9-0.6-1.5V76.7c0-0.6,0.2-1.1,0.6-1.5
		c0.4-0.4,0.9-0.6,1.5-0.6h14.8c0.6,0,1.1,0.2,1.5,0.6c0.4,0.4,0.6,0.9,0.6,1.5v2.5c0,0.4,0.1,0.6,0.3,0.7c0.2,0.1,0.4,0,0.5-0.3
		c3-3.8,6.9-5.7,11.6-5.7C281.4,73.8,283.4,74.3,284.9,75.1z"/>
	<path id="XMLID_15_" d="M326.4,117.3c2-0.7,3.7-1.7,5.1-2.9c0.5-0.5,0.9-0.8,1.5-0.8c0.5,0,0.9,0.3,1.4,0.8l7.1,8.4
		c0.5,0.5,0.7,1,0.7,1.5c0,0.5-0.2,1-0.7,1.5c-2.6,2.7-5.9,4.9-9.8,6.4c-4,1.5-8.2,2.3-12.7,2.3c-5.2,0-9.7-0.9-13.7-2.8
		c-4-1.9-7.3-4.5-9.9-7.8c-4.2-5.3-6.3-12.1-6.3-20.3c0-3.6,0.4-7.1,1.3-10.3c1.7-5.9,4.9-10.7,9.8-14.3c4.9-3.6,10.6-5.4,17.1-5.4
		c7.6,0,13.7,2.4,18.4,7.1c4.7,4.7,7.7,11.3,9.2,19.7c0.3,2.1,0.5,4.4,0.7,7c0,1.4-0.7,2.1-2.1,2.1h-34.4c-0.2,0-0.4,0.1-0.6,0.2
		c-0.2,0.2-0.2,0.4-0.2,0.7l0.7,2.3c0.8,1.8,2.1,3.2,4,4.3c1.9,1,4.2,1.5,7,1.5C322.2,118.4,324.4,118.1,326.4,117.3z M309.1,95.5
		c-0.3,0.8-0.5,1.3-0.6,1.7v0.2c0,0.5,0.3,0.7,0.8,0.7h15.6c0.3,0,0.5-0.1,0.6-0.3c0.1-0.2,0.1-0.4,0.1-0.6l-0.5-1.5
		c-0.6-1.8-1.6-3.2-3-4.3s-3.1-1.5-5.2-1.5C313,89.9,310.4,91.8,309.1,95.5z"/>
	<path id="XMLID_18_" d="M401.2,56.6c3.5,1.9,6.3,4.7,8.2,8.2c1.9,3.5,2.9,7.5,2.9,12.1s-1,8.5-3,12c-2,3.4-4.8,6.1-8.4,8
		c-3.6,1.9-7.8,2.8-12.5,2.8h-19.9c-0.4,0-0.6,0.2-0.6,0.6v31.7c0,0.5-0.2,1-0.5,1.3c-0.3,0.3-0.7,0.5-1.3,0.5h-7.5
		c-0.5,0-1-0.2-1.3-0.5c-0.3-0.3-0.5-0.7-0.5-1.3V55.4c0-0.5,0.2-0.9,0.5-1.3c0.3-0.3,0.7-0.5,1.3-0.5H389
		C393.6,53.7,397.7,54.6,401.2,56.6z M397.6,87c2.5-2.5,3.8-5.8,3.8-9.9c0-4.2-1.3-7.5-3.8-10.1c-2.5-2.5-5.9-3.8-10.1-3.8h-18.9
		c-0.4,0-0.6,0.2-0.6,0.6v26.4c0,0.4,0.2,0.6,0.6,0.6h18.9C391.7,90.7,395,89.5,397.6,87z"/>
	<path id="XMLID_21_" d="M457,77.1c3.5,1.6,6.1,3.9,8,6.8c1.9,2.9,2.8,6.3,2.8,10v38c0,0.5-0.2,1-0.5,1.3c-0.3,0.3-0.7,0.5-1.3,0.5
		h-7.5c-0.5,0-1-0.2-1.3-0.5c-0.3-0.3-0.5-0.7-0.5-1.3v-3.2c0-0.2-0.1-0.4-0.2-0.5c-0.2-0.1-0.3,0-0.5,0.1c-2.1,2-4.7,3.5-7.6,4.6
		c-2.9,1.1-6.1,1.6-9.5,1.6c-5.5,0-10.1-1.4-13.7-4.3c-3.6-2.9-5.4-7.2-5.4-12.9c0-5.9,2.1-10.6,6.2-14c4.1-3.4,9.9-5.1,17.4-5.1
		h12.7c0.4,0,0.6-0.2,0.6-0.6v-3c0-3.3-1-5.9-2.9-7.8c-1.9-1.9-4.9-2.8-8.8-2.8c-3.1,0-5.6,0.6-7.6,1.7c-1.9,1.1-3.2,2.7-3.8,4.8
		c-0.3,1-1,1.4-1.9,1.4l-8.2-1c-0.5-0.1-1-0.2-1.3-0.5c-0.3-0.3-0.4-0.6-0.3-1c0.7-4.3,3.1-7.9,7.4-10.7c4.2-2.8,9.4-4.2,15.6-4.2
		C449.5,74.6,453.5,75.5,457,77.1z M452.3,122.1c3-2.1,4.5-4.8,4.5-8.1v-6.6c0-0.4-0.2-0.6-0.6-0.6h-10.6c-4.5,0-8.1,0.9-10.7,2.6
		c-2.7,1.7-4,4.2-4,7.3c0,2.8,1,4.9,3,6.4c2,1.4,4.6,2.2,7.8,2.2C445.8,125.3,449.3,124.2,452.3,122.1z"/>
	<path id="XMLID_24_" d="M514,76.2c0.8,0.5,1.1,1.2,0.9,2.2l-1.6,7.4c-0.1,0.8-0.5,1.1-1.1,1.1c-0.4,0-0.7,0-0.9-0.1
		c-1.1-0.4-2.4-0.6-3.9-0.6c-0.8,0-1.3,0-1.7,0.1c-3.6,0.2-6.5,1.4-8.8,3.7c-2.3,2.3-3.5,5.3-3.5,9.1v32.7c0,0.5-0.2,1-0.5,1.3
		c-0.3,0.3-0.7,0.5-1.3,0.5h-7.5c-0.5,0-1-0.2-1.3-0.5c-0.3-0.3-0.5-0.7-0.5-1.3V77.3c0-0.5,0.2-0.9,0.5-1.3
		c0.3-0.3,0.7-0.5,1.3-0.5h7.5c0.5,0,0.9,0.2,1.3,0.5c0.3,0.3,0.5,0.7,0.5,1.3v5.2c0,0.3,0.1,0.5,0.2,0.5c0.1,0,0.2-0.1,0.4-0.3
		c3.4-5.2,8.1-7.8,13.9-7.8C510.1,75,512.2,75.4,514,76.2z"/>
	<path id="XMLID_26_" d="M554.1,84.1c-0.3,0.3-0.7,0.5-1.3,0.5h-11.6c-0.4,0-0.6,0.2-0.6,0.6v29.8c0,3.3,0.7,5.6,2.1,7
		c1.4,1.4,3.7,2.1,6.8,2.1h2.7c0.5,0,0.9,0.2,1.3,0.5c0.3,0.3,0.5,0.7,0.5,1.3v5.9c0,1.1-0.6,1.7-1.7,1.8l-4.7,0.1
		c-5.9,0-10.2-1-13.1-3.1c-2.9-2.1-4.3-5.9-4.3-11.5V85.1c0-0.4-0.2-0.6-0.6-0.6h-6.3c-0.5,0-1-0.2-1.3-0.5
		c-0.3-0.3-0.5-0.7-0.5-1.3v-5.6c0-0.5,0.2-0.9,0.5-1.3c0.3-0.3,0.7-0.5,1.3-0.5h6.3c0.4,0,0.6-0.2,0.6-0.6V62.2
		c0-0.5,0.2-0.9,0.5-1.3c0.3-0.3,0.7-0.5,1.3-0.5h7.1c0.5,0,1,0.2,1.3,0.5c0.3,0.3,0.5,0.7,0.5,1.3V75c0,0.4,0.2,0.6,0.6,0.6h11.6
		c0.5,0,0.9,0.2,1.3,0.5c0.3,0.3,0.5,0.7,0.5,1.3v5.6C554.6,83.4,554.5,83.8,554.1,84.1z"/>
	<path id="XMLID_28_" d="M576.5,132.2c-3.5-1.4-6.1-3.2-8-5.6c-1.9-2.4-2.8-5-2.8-7.9V118c0-0.5,0.2-0.9,0.5-1.3
		c0.3-0.3,0.7-0.5,1.3-0.5h7.1c0.5,0,0.9,0.1,1.3,0.2c0.3,0.2,0.5,0.3,0.5,0.6v0.9c0,2.1,1.2,4,3.5,5.6c2.3,1.6,5.2,2.4,8.7,2.4
		c3.5,0,6.3-0.7,8.4-2.2c2.1-1.5,3.2-3.4,3.2-5.6c0-2.2-1-3.9-3-5c-2-1.1-5.2-2.3-9.6-3.5c-4.3-1.2-8-2.5-10.9-3.7
		c-2.9-1.3-5.4-3-7.4-5.4c-2-2.3-3-5.3-3-8.9c0-5.1,2-9.1,6-12.1c4-3,9.3-4.5,15.9-4.5c4.4,0,8.3,0.7,11.7,2.1
		c3.4,1.4,6,3.4,7.8,5.9c1.8,2.5,2.7,5.3,2.7,8.4c0,0.5-0.2,0.8-0.5,1.1c-0.3,0.3-0.7,0.4-1.3,0.4h-6.8c-0.5,0-1-0.1-1.3-0.2
		c-0.3-0.2-0.5-0.3-0.5-0.6v-0.7c0-2.2-1.1-4-3.2-5.5s-5.1-2.2-8.8-2.2c-3.3,0-6.1,0.6-8.2,1.9c-2.1,1.3-3.1,3-3.1,5.2
		c0,2.2,1,3.9,3,5c2,1.1,5.3,2.4,9.7,3.6c4.4,1.2,8.1,2.4,11,3.6c2.9,1.2,5.4,2.9,7.5,5.2c2.1,2.3,3.1,5.3,3.1,9.1
		c0,5.2-2,9.3-6.1,12.3c-4.1,3-9.5,4.6-16.4,4.6C584,134.3,580,133.6,576.5,132.2z"/>
</g>
<g id="XMLID_3_">
	<path id="XMLID_32_" d="M656.7,157c-0.2-0.6-0.2-1.3,0.1-2l39.2-88c0.3-0.7,0.8-1.2,1.4-1.4c0.6-0.2,1.3-0.2,2,0.1l33,14.7
		c6.9,3.1,12.5,7,16.7,11.7c4.2,4.7,6.8,10,7.8,15.7c0.9,5.7,0.1,11.4-2.4,17.2L739,159.7c-2.6,5.7-6.3,10.2-11.2,13.3
		c-4.9,3.1-10.5,4.7-16.9,4.7c-6.4,0-13-1.5-19.9-4.6l-33-14.7C657.5,158.2,657,157.7,656.7,157z M687.1,148.8l13.4,6
		c3.5,1.6,7,1.6,10.3,0.1c3.3-1.5,6-4.4,8-8.6l12.1-27.3c1.9-4.2,2.3-8.1,1.1-11.6c-1.1-3.5-3.5-6.1-7.1-7.7l-13.2-5.9
		c-0.6-0.3-1.1-0.1-1.3,0.5l-23.7,53.3C686.3,148.1,686.5,148.5,687.1,148.8z"/>
</g>
<g id="XMLID_1_">
	<path id="XMLID_30_" class="st0" d="M689.9,113.3c0,4.9-0.9,9.7-2.8,14.1c-2.4,6.1-6.4,10.9-11.9,14.4c-5.5,3.5-12,5.3-19.5,5.3
		c-7.3,0-13.7-1.8-19.3-5.4c-5.6-3.6-9.7-8.5-12.2-14.6c-1.4-3.4-2.2-7.2-2.4-11.5v-0.3c0-1.5,0.8-2.2,2.4-2.2h18.5
		c1.5,0,2.3,0.8,2.5,2.4c0.4,2.6,0.9,4.6,1.7,6c1.6,3.7,4.5,5.6,8.8,5.6c4.1,0,7-1.7,8.7-5.2c1.4-2.5,2.1-5.6,2.1-9.2
		c0-3.5-0.7-6.8-2.1-9.8c-2-3.5-4.9-5.3-8.8-5.3c-1,0-2.1,0.3-3.2,0.9c-1.1,0.6-2.6,1.5-4.3,2.7c-0.5,0.4-1,0.6-1.7,0.6
		c-0.7,0-1.4-0.4-2-1.1l-9-12.6c-0.4-0.7-0.6-1.3-0.6-1.5c0-0.7,0.4-1.4,1.1-2l20.4-15.4c0.4-0.3,0.5-0.6,0.4-0.8
		c-0.1-0.3-0.4-0.4-0.8-0.4h-29.4c-0.7,0-1.4-0.2-1.8-0.7c-0.5-0.5-0.7-1.1-0.7-1.8V50.5c0-0.7,0.2-1.4,0.7-1.8
		c0.5-0.5,1.1-0.7,1.8-0.7H686c0.7,0,1.4,0.2,1.8,0.7c0.5,0.5,0.7,1.1,0.7,1.8v16.8c0,1.2-0.5,2.2-1.5,3.1l-16.2,13
		c-0.2,0.1-0.3,0.3-0.3,0.6c0,0.4,0.3,0.7,0.8,0.8c7.2,2,12.5,6.7,15.8,14.1C689,103.2,689.9,108,689.9,113.3z"/>
</g>
</svg>
